<svg width="18.000000" height="14.000000" viewBox="0 0 18 14" fill="none" xmlns="http://www.w3.org/2000/svg" xmlns:xlink="http://www.w3.org/1999/xlink">
	<desc>
			Created with Pixso.
	</desc>
	<defs/>
	<path id="Union" d="M0.418457 5.4419C-0.139404 6.26255 -0.139404 7.314 0.418457 8.13465C1.76392 10.1139 4.72803 13.5766 9 13.5766C13.272 13.5766 16.2361 10.1139 17.5815 8.13465C18.1396 7.314 18.1396 6.26255 17.5815 5.4419C16.2361 3.46268 13.272 0 9 0C4.72803 0 1.76392 3.46268 0.418457 5.4419ZM9 1.56653C12.4175 1.56653 14.9712 4.38836 16.2861 6.3226C16.4827 6.61168 16.4827 6.96487 16.2861 7.25395C14.9712 9.18819 12.4175 12.01 9 12.01C5.58252 12.01 3.02881 9.18819 1.71387 7.25395C1.51733 6.96487 1.51733 6.61168 1.71387 6.3226C3.02881 4.38836 5.58252 1.56653 9 1.56653ZM9.02124 3.65508C10.7637 3.65508 12.1763 5.05775 12.1763 6.78813C12.1763 8.51851 10.7637 9.92118 9.02124 9.92118C7.27881 9.92118 5.86646 8.51851 5.86646 6.78813C5.86646 5.05775 7.27881 3.65508 9.02124 3.65508ZM7.43286 6.78813C7.43286 7.64304 8.13379 8.35465 9.02124 8.35465C9.90894 8.35465 10.6099 7.64304 10.6099 6.78813C10.6099 5.93323 9.90894 5.2216 9.02124 5.2216C8.13379 5.2216 7.43286 5.93323 7.43286 6.78813Z" clip-rule="evenodd" fill="#1A1919" fill-opacity="1.000000" fill-rule="evenodd"/>
</svg>
